<?xml version="1.0" standalone="no"?>
<!DOCTYPE svg PUBLIC "-//W3C//DTD SVG 20010904//EN"
 "http://www.w3.org/TR/2001/REC-SVG-20010904/DTD/svg10.dtd">
<svg version="1.0" xmlns="http://www.w3.org/2000/svg"
 width="16.000000pt" height="16.000000pt" viewBox="0 0 16.000000 16.000000"
 preserveAspectRatio="xMidYMid meet">
<metadata>
Created by potrace 1.11, written by Peter Selinger 2001-2013
</metadata>
<g transform="translate(0.000000,16.000000) scale(0.008333,-0.008333)"
fill="#000000" stroke="none">
<path d="M760 1769 c-297 -77 -524 -305 -600 -603 -28 -110 -28 -292 0 -402
63 -245 223 -441 451 -549 116 -55 212 -75 354 -75 142 0 238 20 354 75 181
86 310 216 396 398 55 114 75 211 75 352 0 142 -20 238 -75 354 -108 228 -304
388 -549 451 -108 27 -300 27 -406 -1z"/>
</g>
</svg>
